<?xml version="1.0" encoding="utf-8"?>
<!-- Generator: Adobe Illustrator 21.0.0, SVG Export Plug-In . SVG Version: 6.00 Build 0)  -->
<!DOCTYPE svg PUBLIC "-//W3C//DTD SVG 1.1//EN" "http://www.w3.org/Graphics/SVG/1.1/DTD/svg11.dtd">
<svg version="1.1" id="Layer_1" xmlns="http://www.w3.org/2000/svg" xmlns:xlink="http://www.w3.org/1999/xlink" x="0px" y="0px"
	 viewBox="0 0 300 285.3" style="enable-background:new 0 0 300 285.3;" xml:space="preserve">
<style type="text/css">
	.st0{fill:#2AFCFF;}
</style>
<g>
	<path class="st0" d="M267.2,116.3h-89.5L150,31.2l-27.7,85.1H32.8l72.4,52.6l-27.7,85.1l72.4-52.6l72.4,52.6L194.7,169L267.2,116.3
		z M156.9,192l-6.9-5l-6.9,5l-43.2,31.4l16.5-50.8l2.6-8.1l-6.9-5l-43.2-31.4h53.4h8.5l2.6-8.1L150,69.1l16.5,50.8l2.6,8.1h8.5h53.4
		l-43.2,31.4l-6.9,5l2.6,8.1l16.5,50.8L156.9,192z"/>
</g>
</svg>
