<?xml version="1.0" encoding="utf-8"?>
<!-- Generator: Adobe Illustrator 21.0.0, SVG Export Plug-In . SVG Version: 6.00 Build 0)  -->
<!DOCTYPE svg PUBLIC "-//W3C//DTD SVG 1.1//EN" "http://www.w3.org/Graphics/SVG/1.1/DTD/svg11.dtd">
<svg version="1.1" id="Layer_1" xmlns="http://www.w3.org/2000/svg" xmlns:xlink="http://www.w3.org/1999/xlink" x="0px" y="0px"
	 viewBox="0 0 300 285.3" style="enable-background:new 0 0 300 285.3;" xml:space="preserve">
<style type="text/css">
	.st0{fill:#2AFCFF;}
</style>
<g>
	<path class="st0" d="M300,109H185.4L150,0l-35.4,109H0l92.7,67.4l-35.4,109L150,218l92.7,67.4l-35.4-109L300,109z M158.8,205.8
		l-8.8-6.4l-8.8,6.4L85.8,246L107,181l3.4-10.4l-8.8-6.4L46.2,124h68.4h10.9l3.4-10.4L150,48.5l21.1,65.1l3.4,10.4h10.9h68.4
		l-55.4,40.2l-8.8,6.4L193,181l21.1,65.1L158.8,205.8z"/>
</g>
</svg>
